<?xml version="1.0" encoding="utf-8"?>
<!-- Generator: Adobe Illustrator 27.0.0, SVG Export Plug-In . SVG Version: 6.00 Build 0)  -->
<svg version="1.1" id="Layer_1" xmlns="http://www.w3.org/2000/svg" xmlns:xlink="http://www.w3.org/1999/xlink" x="0px" y="0px"
	 viewBox="0 0 67.2 67.2" style="enable-background:new 0 0 67.2 67.2;" xml:space="preserve">
<style type="text/css">
	.st0{fill:#F9DCDD;}
</style>
<g>
	<path class="st0" d="M33.7,12.6c12.1,0.4,20.9,9.6,20.8,21.1c-0.1,12.2-9.6,20.9-21.1,20.8c-12.2-0.1-20.9-9.6-20.7-21.1
		C12.8,21.3,22.2,12.8,33.7,12.6z M33.6,46.2c4.3-0.1,7.9-1.6,10.8-4.6c0.9-0.9,0.9-2.2,0-3.1c-0.8-0.8-1.9-0.9-2.9-0.1
		c-0.3,0.2-0.6,0.5-0.9,0.7c-2.8,2.5-6,3.2-9.6,2.4c-2.1-0.4-3.8-1.7-5.4-3.1c-1-0.9-2.2-0.9-3,0c-0.8,0.9-0.8,2.2,0.1,3.1
		C25.8,44.6,29.4,46.1,33.6,46.2z M26.3,31.5c1.7,0,3.1-1.4,3.2-3.1c0-1.7-1.4-3.2-3.2-3.2c-1.7,0-3.2,1.5-3.2,3.2
		C23.1,30.1,24.6,31.5,26.3,31.5z M44.1,28.4c0-1.7-1.5-3.2-3.2-3.2c-1.7,0-3.1,1.5-3.1,3.2c0,1.7,1.5,3.2,3.2,3.1
		C42.7,31.5,44.1,30,44.1,28.4z"/>
	<path class="st0" d="M6.3,6.3c0,2.4,0,4.6,0,6.9c0,1.5,0.1,2.9,0,4.4c-0.1,2.4-1.3,3.3-3.1,3.4C1.4,21,0.1,19.7,0,17.7
		C0,13.2,0,8.6,0.1,4.1c0.1-2.5,1.7-4,4.2-4C8.7,0,13.1,0,17.6,0c1.6,0,2.7,0.8,3.1,2.1c0.4,1.2,0.1,2.7-0.9,3.4
		c-0.7,0.5-1.7,0.8-2.5,0.8c-3.3,0.1-6.6,0-10,0C7.1,6.3,6.7,6.3,6.3,6.3z"/>
	<path class="st0" d="M60.9,6.3c-0.4,0-0.7,0-1.1,0c-3.4,0-6.7,0-10.1,0c-1.8,0-3-0.8-3.4-2.2c-0.6-2.1,0.7-4,3.1-4
		C54,0,58.6,0,63.1,0.1c2.5,0.1,4,1.7,4,4.2c0,4.4,0,8.9,0,13.3c0,1.6-0.8,2.7-2.1,3.1c-1.2,0.4-2.7,0.2-3.4-0.9
		c-0.5-0.7-0.8-1.7-0.8-2.5c-0.1-3.3,0-6.6,0-10C60.9,7.1,60.9,6.7,60.9,6.3z"/>
	<path class="st0" d="M6.3,60.9c0.4,0,0.7,0,1,0c3.4,0,6.7,0,10.1,0c1.8,0,3,0.8,3.4,2.2c0.6,2.1-0.7,4-3.1,4
		c-4.5,0.1-9.1,0.1-13.6,0c-2.5,0-4-1.7-4-4.1C0,58.5,0,54,0,49.5c0-1.5,0.8-2.6,2-3.1c1.2-0.4,2.7-0.2,3.4,0.9
		c0.5,0.7,0.8,1.7,0.8,2.5c0.1,3.3,0,6.6,0,10C6.3,60.1,6.3,60.5,6.3,60.9z"/>
	<path class="st0" d="M60.9,60.9c0-0.4,0-0.7,0-1c0-3.4,0-6.8,0-10.1c0-1.8,0.8-3,2.3-3.3c2.1-0.6,3.9,0.8,4,3.1
		c0.1,4.5,0.1,9.1,0,13.6c0,2.5-1.6,4-4.1,4.1c-4.5,0.1-9,0-13.5,0c-1.5,0-2.6-0.8-3.1-2c-0.4-1.2-0.2-2.7,0.9-3.4
		c0.7-0.5,1.7-0.8,2.6-0.8c3.3-0.1,6.6,0,10,0C60.2,60.9,60.5,60.9,60.9,60.9z"/>
</g>
</svg>
