<?xml version="1.0" encoding="utf-8"?>
<!-- Generator: Adobe Illustrator 27.0.0, SVG Export Plug-In . SVG Version: 6.00 Build 0)  -->
<svg version="1.1" id="Layer_1" xmlns="http://www.w3.org/2000/svg" xmlns:xlink="http://www.w3.org/1999/xlink" x="0px" y="0px"
	 viewBox="0 0 224 68" style="enable-background:new 0 0 224 68;" xml:space="preserve">
<style type="text/css">
	.st0{fill:#FFFFFF;}
</style>
<g>
	<path class="st0" d="M0.8,2h15V66h-15V2z"/>
	<path class="st0" d="M29.8,2h15V66h-15V2z"/>
	<path class="st0" d="M58.9,2h15V66h-15V2z"/>
	<path class="st0" d="M181,65.1c-4.9-1.6-9-3.8-12.6-6.7l7.8-10.9c5.7,4.5,12.3,6.7,19.9,6.7c3.8,0,6.8-0.6,9-1.9
		c2.2-1.3,3.3-3,3.3-5.2c0-2.1-1-3.7-3.1-4.9c-2.1-1.2-5.4-2-9.9-2.5c-8.7-1-15.1-3-19.2-6.1c-4.1-3.1-6.1-7.6-6.1-13.4
		c0-3.9,1.1-7.4,3.3-10.3c2.2-3,5.3-5.3,9.2-7c4-1.6,8.5-2.5,13.7-2.5c4.5,0,8.8,0.6,13,1.9c4.2,1.3,8,3.1,11.2,5.4l-7,10.5
		c-5-3.5-10.5-5.2-16.6-5.2c-3.7,0-6.7,0.6-8.9,1.8c-2.2,1.2-3.3,2.9-3.3,4.9c0,2,1,3.6,2.9,4.7c1.9,1.1,5.1,1.9,9.7,2.5
		c8.7,1,15.1,3.1,19.4,6.5c4.3,3.3,6.4,7.9,6.4,13.7c0,4-1.1,7.6-3.4,10.7c-2.3,3.1-5.4,5.5-9.5,7.1c-4.1,1.7-8.8,2.5-14.1,2.5
		C190.9,67.5,185.9,66.7,181,65.1z"/>
	<polygon class="st0" points="143.6,30.2 143.6,66 158.6,66 158.6,9.3 	"/>
	<polygon class="st0" points="158.6,2 145.1,2 123.2,29 101.3,2 87.9,2 87.9,65.4 102.8,65.4 102.8,25.6 121.8,48.5 124.8,48.5 
		143.6,25.7 143.6,25.9 158.6,2.8 	"/>
</g>
</svg>
